#!OML:ASF F:\VICON\USERDATA\INSTALL\rory3\rory3.ASF
:FULLY-SPECIFIED
:DEGREES
1619
root -4.31993 17.534 -5.14566 9.41897 -6.20511 2.25579
lowerback 8.03287 3.12318 1.8334
upperback 0.795881 4.28812 -0.616558
thorax -3.48784 2.09728 -2.12555
lowerneck -23.0233 0.741784 -11.5206
upperneck 15.2234 5.75287 -4.76955
head 8.42739 1.4749 0.97549
rclavicle -5.84427e-014 -7.95139e-015
rhumerus -12.1693 8.31236 -80.2834
rradius 48.6619
rwrist 12.2109
rhand -32.3788 1.30067
rfingers 7.12502
rthumb -5.61444 -28.605
lclavicle -5.84427e-014 -7.95139e-015
lhumerus -26.5862 1.13784 79.466
lradius 45.3385
lwrist 3.9231
lhand -16.7752 27.834
lfingers 7.12502
lthumb 9.45228 57.602
rfemur -11.2697 -5.28557 23.4649
rtibia 34.2419
rfoot -25.3934 1.36698
rtoes 3.29106
lfemur -32.1377 3.63515 -28.7454
ltibia 17.1561
lfoot 0.0644899 -6.79501
ltoes -14.452
1620
root -4.28019 17.533 -5.22503 9.84109 -6.2807 2.28486
lowerback 8.04783 3.09512 1.91715
upperback 0.769203 4.26651 -0.406443
thorax -3.53494 2.08532 -1.95538
lowerneck -23.2389 0.768176 -11.5313
upperneck 15.0691 5.82686 -4.84683
head 8.41108 1.50641 0.960894
rclavicle -8.54774e-015 1.51076e-014
rhumerus -12.2833 8.38363 -79.9904
rradius 48.122
rwrist 11.8913
rhand -31.9847 0.155356
rfingers 7.12502
rthumb -5.23397 -29.76
lclavicle -8.54774e-015 1.51076e-014
lhumerus -27.1469 1.09207 79.7044
lradius 45.0499
lwrist 3.9752
lhand -16.78 27.9594
lfingers 7.12502
lthumb 9.4476 57.7276
rfemur -12.006 -5.65314 23.3257
rtibia 34.1229
rfoot -25.5019 1.70019
rtoes 3.39662
lfemur -32.2492 3.61521 -28.8012
ltibia 16.1666
lfoot -0.517292 -6.47918
ltoes -17.5324
1621
root -4.24462 17.5333 -5.30118 10.1267 -6.44079 2.22322
lowerback 8.1863 3.10047 2.01586
upperback 0.79385 4.29306 -0.178997
thorax -3.59578 2.09709 -1.78653
lowerneck -23.3469 0.825749 -11.4301
upperneck 14.8495 5.89495 -4.98138
head 8.3589 1.54226 0.907735
rclavicle 5.96354e-014 -5.56597e-015
rhumerus -12.4479 8.47577 -79.7097
rradius 47.5364
rwrist 11.573
rhand -31.6005 -0.704546
rfingers 7.12502
rthumb -4.86296 -30.6287
lclavicle 5.96354e-014 -5.56597e-015
lhumerus -27.6829 1.01517 79.9509
lradius 44.7301
lwrist 4.04647
lhand -16.6913 28.1605
lfingers 7.12502
lthumb 9.53319 57.9249
rfemur -12.5707 -5.7562 23.2915
rtibia 34.0246
rfoot -25.555 2.09416
rtoes 5.09779
lfemur -32.2578 3.74077 -28.7687
ltibia 15.2627
lfoot -1.05224 -6.1742
ltoes -19.4113
1622
root -4.20812 17.5319 -5.37637 10.3328 -6.55228 2.23041
lowerback 8.44801 3.08278 2.06779
upperback 0.824774 4.28659 0.0162772
thorax -3.72121 2.09181 -1.62894
lowerneck -23.5036 0.911932 -11.2937
upperneck 14.7271 6.00095 -5.08725
head 8.34694 1.59339 0.865551
rclavicle -7.85199e-014 7.95139e-016
rhumerus -12.6352 8.57291 -79.4439
rradius 46.9726
rwrist 11.2235
rhand -31.3405 -0.95046
rfingers 7.12502
rthumb -4.61192 -30.8803
lclavicle -7.85199e-014 7.95139e-016
lhumerus -28.2086 0.87732 80.1947
lradius 44.3469
lwrist 4.0988
lhand -16.6058 27.998
lfingers 7.12502
lthumb 9.61572 57.7586
rfemur -13.0187 -5.76156 23.1995
rtibia 33.939
rfoot -25.6352 2.4422
rtoes 6.16779
lfemur -32.2949 4.0843 -28.9572
ltibia 14.5253
lfoot -1.51098 -6.07726
ltoes -20.1927
1623
root -4.1738 17.5345 -5.45344 10.5468 -6.53121 2.36603
lowerback 8.69749 3.02198 1.96374
upperback 0.88248 4.20791 0.210887
thorax -3.82579 2.05377 -1.37524
lowerneck -23.754 0.974733 -11.2484
upperneck 14.6256 6.10759 -5.12726
head 8.353 1.6433 0.860538
rclavicle -4.03533e-014 -9.54166e-015
rhumerus -12.8685 8.60782 -79.1432
rradius 46.5018
rwrist 10.9768
rhand -30.9877 -0.742398
rfingers 7.12502
rthumb -4.27121 -30.6793
lclavicle -4.03533e-014 -9.54166e-015
lhumerus -28.6224 0.683677 80.4794
lradius 43.8003
lwrist 4.0379
lhand -16.2695 27.5611
lfingers 7.12502
lthumb 9.94018 57.3064
rfemur -13.4791 -5.80002 23.0167
rtibia 33.8751
rfoot -25.774 2.57647
rtoes 5.76231
lfemur -32.3841 4.51182 -29.38
ltibia 13.891
lfoot -1.85601 -6.1794
ltoes -21.0779
1624
root -4.13989 17.5412 -5.53085 10.7176 -6.45478 2.5321
lowerback 8.97274 2.9381 1.85924
upperback 0.987892 4.09646 0.368962
thorax -3.8925 2.00021 -1.1541
lowerneck -24.084 1.01779 -11.0592
upperneck 14.5252 6.17239 -5.26751
head 8.38191 1.66838 0.795194
rclavicle -3.06128e-014 -7.95139e-015
rhumerus -13.1913 8.54235 -78.9214
rradius 46.1374
rwrist 10.8742
rhand -30.5538 -0.617049
rfingers 7.12502
rthumb -3.85221 -30.562
lclavicle -3.06128e-014 -7.95139e-015
lhumerus -29.0441 0.276102 80.7579
lradius 43.2876
lwrist 3.79318
lhand -15.9124 27.2305
lfingers 7.12502
lthumb 10.2847 56.959
rfemur -13.9349 -5.94505 22.8244
rtibia 33.8361
rfoot -25.8598 2.55443
rtoes 5.33551
lfemur -32.4322 4.75094 -29.7122
ltibia 13.3669
lfoot -2.07824 -6.0611
ltoes -21.249
1625
root -4.1045 17.5522 -5.59852 10.8707 -6.74016 2.68195
lowerback 9.20965 2.98551 1.66441
upperback 1.09616 4.14846 0.515494
thorax -3.93508 2.02923 -0.910984
lowerneck -24.2307 1.09935 -10.7673
upperneck 14.267 6.23943 -5.55034
head 8.33487 1.6993 0.663387
rclavicle -1.55052e-014 -7.95139e-015
rhumerus -13.6013 8.41825 -78.6984
rradius 45.777
rwrist 10.8474
rhand -30.019 -0.685421
rfingers 7.12502
rthumb -3.33579 -30.6391
lclavicle -1.55052e-014 -7.95139e-015
lhumerus -29.5989 -0.203986 81.0901
lradius 42.8282
lwrist 3.34006
lhand -15.8873 26.9163
lfingers 7.12502
lthumb 10.3089 56.6437
rfemur -14.4475 -5.88154 22.5718
rtibia 33.8298
rfoot -25.748 2.5269
rtoes 5.66946
lfemur -32.499 4.66398 -29.7233
ltibia 13.0459
lfoot -2.32229 -5.29504
ltoes -20.1132
1626
root -4.06822 17.5662 -5.66441 10.9424 -7.09981 2.72074
lowerback 9.52197 3.02637 1.53582
upperback 1.27604 4.19965 0.712374
thorax -3.94461 2.05744 -0.654701
lowerneck -24.393 1.20271 -10.5982
upperneck 13.9326 6.34309 -5.70363
head 8.2542 1.75998 0.598323
rclavicle -3.97569e-014 -1.59028e-014
rhumerus -13.9238 8.34115 -78.4666
rradius 45.4591
rwrist 10.7983
rhand -29.3863 -0.749411
rfingers 7.12502
rthumb -2.72475 -30.7118
lclavicle -3.97569e-014 -1.59028e-014
lhumerus -30.0783 -0.241013 81.3815
lradius 42.3957
lwrist 2.73412
lhand -15.6152 26.4029
lfingers 7.12502
lthumb 10.5713 56.1171
rfemur -14.9007 -5.67028 22.4192
rtibia 33.8353
rfoot -25.5586 2.43192
rtoes 6.04047
lfemur -32.5479 4.24196 -29.3987
ltibia 12.9847
lfoot -2.58587 -4.25888
ltoes -19.6307
1627
root -4.03373 17.5819 -5.73711 11.0394 -7.26626 2.74021
lowerback 9.80995 2.98746 1.47571
upperback 1.52138 4.14898 0.896294
thorax -3.86823 2.03511 -0.433262
lowerneck -24.5863 1.28121 -10.4784
upperneck 13.4931 6.40085 -5.75151
head 8.13701 1.81464 0.569305
rclavicle 1.74931e-014 1.19271e-014
rhumerus -14.2392 8.2101 -78.295
rradius 45.2813
rwrist 10.8089
rhand -28.7707 -0.53616
rfingers 7.12502
rthumb -2.13021 -30.5053
lclavicle 1.74931e-014 1.19271e-014
lhumerus -30.4003 0.11188 81.5751
lradius 42.0338
lwrist 2.05627
lhand -15.3498 25.2713
lfingers 7.12502
lthumb 10.8274 54.9722
rfemur -15.3739 -5.53308 22.3379
rtibia 33.8692
rfoot -25.3387 2.21533
rtoes 5.62595
lfemur -32.6906 3.85726 -29.1157
ltibia 13.131
lfoot -2.86281 -3.45171
ltoes -19.5337
1628
root -3.99819 17.601 -5.80847 11.2366 -7.4357 2.65918
lowerback 9.98561 2.95 1.53115
upperback 1.73088 4.11032 1.07218
thorax -3.75733 2.01729 -0.280342
lowerneck -24.7379 1.35887 -10.35
upperneck 13.1146 6.44456 -5.75005
head 8.03232 1.86518 0.553895
rclavicle 1.70955e-014 -1.11319e-014
rhumerus -14.7103 7.75937 -78.1957
rradius 45.27
rwrist 11.0186
rhand -28.0462 0.154585
rfingers 7.12502
rthumb -1.43055 -29.8204
lclavicle 1.70955e-014 -1.11319e-014
lhumerus -30.8546 0.171686 81.7813
lradius 41.7379
lwrist 1.72772
lhand -15.8346 23.5513
lfingers 7.12502
lthumb 10.3597 53.2761
rfemur -15.9398 -5.4706 22.3574
rtibia 33.9139
rfoot -25.0377 2.04807
rtoes 5.74445
lfemur -33.0088 3.57386 -28.7715
ltibia 13.5184
lfoot -2.99323 -2.57382
ltoes -18.8257
1629
root -3.96105 17.6187 -5.87654 11.4398 -7.58216 2.49217
lowerback 10.1714 2.88827 1.66156
upperback 1.91603 4.04946 1.28041
thorax -3.67449 1.98724 -0.134135
lowerneck -24.8438 1.48734 -10.1386
upperneck 12.7491 6.54169 -5.84184
head 7.93068 1.93487 0.501641
rclavicle -4.09496e-014 -4.77083e-015
rhumerus -15.3753 7.1964 -78.1566
rradius 45.5271
rwrist 10.93
rhand -26.8777 -0.00859796
rfingers 7.12502
rthumb -0.301995 -29.9881
lclavicle -4.09496e-014 -4.77083e-015
lhumerus -31.4743 0.253469 82.0038
lradius 41.575
lwrist 1.6527
lhand -16.377 22.305
lfingers 7.12502
lthumb 9.83645 52.0553
rfemur -16.5123 -5.39959 22.4645
rtibia 33.9809
rfoot -24.7378 1.91901
rtoes 6.50746
lfemur -33.425 3.26046 -28.3245
ltibia 14.1435
lfoot -2.95172 -1.44498
ltoes -18.4458
1630
root -3.92248 17.6351 -5.94195 11.6427 -7.64671 2.38925
lowerback 10.3382 2.82438 1.79654
upperback 2.09977 3.98337 1.42617
thorax -3.57744 1.95456 -0.0531335
lowerneck -24.8566 1.62615 -9.8366
upperneck 12.3617 6.60112 -5.90336
head 7.80833 1.99816 0.439863
rclavicle 4.77083e-015 1.90833e-014
rhumerus -16.0729 6.81405 -78.1482
rradius 45.6582
rwrist 10.5024
rhand -25.9007 -1.37895
rfingers 7.12502
rthumb 0.641697 -31.3577
lclavicle 4.77083e-015 1.90833e-014
lhumerus -32.0814 0.346277 82.189
lradius 41.5527
lwrist 1.68653
lhand -16.497 21.9143
lfingers 7.12502
lthumb 9.72066 51.67
rfemur -17.06 -5.35023 22.5014
rtibia 34.0453
rfoot -24.4635 1.80835
rtoes 6.73118
lfemur -33.9331 3.08557 -28.0406
ltibia 14.9812
lfoot -3.07081 -0.396944
ltoes -18.8461
1631
root -3.88555 17.6483 -6.00409 11.8497 -7.74617 2.3652
lowerback 10.4803 2.78641 1.81367
upperback 2.2645 3.93772 1.54162
thorax -3.49203 1.93298 0.0602889
lowerneck -24.7772 1.78443 -9.6237
upperneck 11.9702 6.67992 -5.83645
head 7.66127 2.08219 0.435707
rclavicle 3.57812e-014 -3.18055e-015
rhumerus -16.6833 6.58007 -78.1759
rradius 45.383
rwrist 9.84726
rhand -25.7814 -2.14917
rfingers 7.12502
rthumb 0.756916 -32.1276
lclavicle 3.57812e-014 -3.18055e-015
lhumerus -32.6636 0.436782 82.3667
lradius 41.5808
lwrist 1.93234
lhand -16.2506 22.045
lfingers 7.12502
lthumb 9.95843 51.7894
rfemur -17.6207 -5.31324 22.4586
rtibia 34.1303
rfoot -24.2417 1.55806
rtoes 5.87711
lfemur -34.4374 2.9556 -27.8186
ltibia 15.9111
lfoot -3.30451 0.593633
ltoes -18.4261
1632
root -3.85199 17.6632 -6.06522 11.9944 -7.81714 2.42291
lowerback 10.6621 2.7169 1.66183
upperback 2.44368 3.83364 1.68159
thorax -3.42641 1.88364 0.299405
lowerneck -24.9347 1.90875 -9.4748
upperneck 11.8199 6.78725 -5.7517
head 7.63225 2.15614 0.455481
rclavicle -3.10104e-014 -1.11319e-014
rhumerus -17.1726 6.52162 -78.2472
rradius 44.871
rwrist 9.03105
rhand -26.3711 -2.4111
rfingers 7.12502
rthumb 0.187361 -32.3908
lclavicle -3.10104e-014 -1.11319e-014
lhumerus -33.1573 0.603492 82.5591
lradius 41.5144
lwrist 2.45995
lhand -16.2427 22.2629
lfingers 7.12502
lthumb 9.96601 52.007
rfemur -18.1279 -5.27664 22.3397
rtibia 34.2503
rfoot -24.115 1.21292
rtoes 5.13993
lfemur -34.844 2.91136 -27.7205
ltibia 16.8663
lfoot -3.40649 1.25248
ltoes -17.5355
